<svg data-v-0dd9719b="" version="1.0" xmlns="http://www.w3.org/2000/svg" xmlns:xlink="http://www.w3.org/1999/xlink" width="100%" height="100%" viewBox="0 0 340.000000 250.000000" preserveAspectRatio="xMidYMid meet" color-interpolation-filters="sRGB" style="margin: auto;"> <rect data-v-0dd9719b="" x="0" y="0" width="100%" height="100%" fill="#fff" fill-opacity="1" class="background"></rect> <rect data-v-0dd9719b="" x="0" y="0" width="100%" height="100%" fill="url(#watermark)" fill-opacity="1" class="watermarklayer"></rect> <g data-v-0dd9719b="" fill="#333" class="icon-text-wrapper icon-svg-group iconsvg" transform="translate(48.30500030517578,95.46575355529785)"><g class="iconsvg-imagesvg" transform="translate(0,0)"><g><rect fill="#333" fill-opacity="0" stroke-width="2" x="0" y="0" width="60" height="59.06848991405534" class="image-rect"></rect> <svg x="0" y="0" width="60" height="59.06848991405534" filtersec="colorsb5832638170" class="image-svg-svg primary" style="overflow: visible;"><svg xmlns="http://www.w3.org/2000/svg" viewBox="0.4385022521018982 -0.000009216904800268821 101.5615005493164 99.98497772216797"><path d="M69.3 59.41l-9.89 9.89L51 77.73 30.46 98.26A6 6 0 0 1 22 89.83L42.56 69.3 51 60.88l9.9-9.9zM102 24.28a6 6 0 0 1-1.75 4.21L77.72 51l-8.42-8.44 22.5-22.5a6 6 0 0 1 10.2 4.22z" fill="#0059cc"></path><path d="M83.64 6a5.94 5.94 0 0 1-1.74 4.21L41.08 51l-8.42-8.42 9.9-9.89L51 24.24 73.48 1.75A6 6 0 0 1 83.64 6zM32.66 59.41L12.13 79.93a6 6 0 0 1-8.42-8.42L24.24 51z" fill="#00dac7"></path><path d="M51 24.24l-8.42 8.43-22.5-22.5A6 6 0 0 1 24.28 0a5.89 5.89 0 0 1 4.2 1.75zM98.25 79.93a5.94 5.94 0 0 1-8.42 0L51 41.09l8.42-8.42 9.9 9.89 8.4 8.44 20.53 20.51a6 6 0 0 1 0 8.42z" fill="#00baec"></path><path d="M51 60.88l-8.44 8.42L1.74 28.49a6 6 0 0 1 8.43-8.43l22.49 22.5L41.08 51zM79.93 98.26a6 6 0 0 1-8.42 0L51 77.73l8.42-8.43 20.51 20.53a6 6 0 0 1 0 8.43z" fill="#00abd8"></path></svg></svg> <!----></g></g> <g transform="translate(67,18.229246139526367)"><g data-gra="path-name" fill-rule="" class="tp-name iconsvg-namesvg"><g transform="scale(1)"><g><path d="M8.01 0.32C14.82 0.32 16.94-2.25 16.94-6.62 16.94-10.6 16.27-12.35 10.79-13.77 8.07-14.47 7.6-14.69 7.6-15.7 7.6-16.75 8.39-17.22 10.42-17.22 12.16-17.22 14.91-16.81 15.83-16.46L15.83-21.49C14.59-21.91 12.88-22.29 10.13-22.29 4.88-22.29 1.52-20.64 1.52-15.45 1.52-11.55 2.66-10.04 7.47-8.93 10.23-8.26 10.64-7.72 10.64-6.81 10.64-5.44 10.29-5 7.66-5 5.7-5 3.13-5.41 1.68-5.82L1.68-0.41C3.23-0.03 5.57 0.32 8.01 0.32ZM20.67 0L26.97 0 26.97-21.97 20.67-21.97ZM37.45-5.41L37.45-21.97 31.15-21.97 31.15 0 45.59 0 45.59-5.41ZM48.37 0L54.48 0 54.48-15.92 54.67-15.92 57.71-3.51 63.85-3.51 66.99-15.92 67.18-15.92 67.18 0 73.35 0 73.35-21.97 63.44-21.97 61-10.95 60.81-10.95 58.66-21.97 48.37-21.97ZM93.23 0L99.94 0 91.93-21.97 83.42-21.97 75.34 0 81.93 0 83.48-4.62 91.71-4.62ZM85.16-9.69L87.44-16.56 87.82-16.56 90.06-9.69ZM121.37 0L115.48-8.04C118.14-9.02 119.31-11.08 119.31-14.63 119.31-19.85 116.4-21.97 110.8-21.97L101.87-21.97 101.87 0 108.17 0 108.17-7.38 109.41-7.38 113.93 0ZM108.17-17.16L109.69-17.16C112.25-17.16 113.11-16.65 113.11-14.63 113.11-12.57 112.25-11.87 109.69-11.87L108.17-11.87ZM123.3 0L129.6 0 129.6-21.97 123.3-21.97ZM143.56 0.32C150.12 0.32 153.91-1.93 153.91-10.98 153.91-20.01 150.12-22.29 143.56-22.29 137.04-22.29 133.21-20.01 133.21-10.98 133.21-1.93 137.04 0.32 143.56 0.32ZM143.56-4.88C140.56-4.88 139.86-6.27 139.86-10.98 139.86-15.77 140.56-17.19 143.56-17.19 146.57-17.19 147.3-15.77 147.3-10.98 147.3-6.27 146.57-4.88 143.56-4.88ZM157.52 0L163.73 0 163.73-14.69 163.92-14.69 169.14 0 177.91 0 177.91-21.97 171.77-21.97 171.77-8.2 171.58-8.2 167.02-21.97 157.52-21.97Z" transform="translate(-1.5199999809265137, 22.290000915527344)"></path></g> <!----> <!----> <!----> <!----> <!----> <!----> <!----></g></g> <!----></g></g><defs v-gra="od"></defs></svg>